<?xml version="1.0" encoding="UTF-8"?>
<svg id="Layer_2" data-name="Layer 2" xmlns="http://www.w3.org/2000/svg" xmlns:xlink="http://www.w3.org/1999/xlink" viewBox="0 0 495.43 192">
  <defs>
    <style>
      .cls-1 {
        fill: url(#linear-gradient);
      }

      .cls-1, .cls-2, .cls-3 {
        stroke-width: 0px;
      }

      .cls-2 {
        fill: #000;
      }

      .cls-3 {
        fill: url(#linear-gradient-2);
      }
    </style>
    <linearGradient id="linear-gradient" x1="1.04" y1="154.7" x2="198.39" y2="54.15" gradientUnits="userSpaceOnUse">
      <stop offset="0" stop-color="#50e3c2"/>
      <stop offset=".19" stop-color="#4fddc4"/>
      <stop offset=".44" stop-color="#4ecdca"/>
      <stop offset=".71" stop-color="#4cb3d4"/>
      <stop offset=".99" stop-color="#4a90e2"/>
    </linearGradient>
    <linearGradient id="linear-gradient-2" x1="15.1" y1="203.94" x2="106.36" y2="157.44" xlink:href="#linear-gradient"/>
  </defs>
  <g id="Layer_1-2" data-name="Layer 1">
    <g>
      <g>
        <path class="cls-1" d="M1.18,152.92c28.62-12.55,62.64-3.03,98.36,14.81,5.83,2.91,10.67,5.07,17,7.62,29.01,11.34,55.21,14.79,70.59,1.63,4.28-5.87,2.47-14.34,2.87-21.93-.14-3.27.4-7.77-.4-10.62-.57-1.35-2.22-1.09-4.68-.82-17.06,2.41-33.35-11.08-33.71-28.59-.68-13.9,9.32-27.07,22.92-30.08,3.44-.82,7.18-.99,10.6-.58,2.97.29,5.56,1.25,5.26-1.98,0-8.47.01-37.96,0-43.82,0-.7.03-1.24-.48-1.54-6.91-.4-49.6.02-61.93-.13-2.07.03-3.27.3-2.96-2.78,3.41-26.67-27.1-44.47-48.42-27.43-7.74,6.13-11.88,16.38-10.93,26.17.11,1.68.35,3.9-.81,3.96-3.56.18-9.63.05-18.29.09-14.79,0-32.02,0-44.7,0-1.28.04-1.47-.06-1.49.88,0,8.45,0,103.07,0,114.42,0,.69.1,1.05,1.09.75l.08-.02Z"/>
        <path class="cls-3" d="M91.88,178.47c-29.53-14.77-66.67-25.97-88.47-11.77-3.14,1.8-3.91,5.33-2.65,8.55,2.61,7.68,9.08,13.66,17.09,15.72,2.47.65,5.37,1.06,7.64,1.02,8.49,0,75.96,0,98.1,0,.5-.02.46-.13-.27-.42-.41-.16-1.02-.38-1.79-.65-9.56-3.23-19.78-7.59-29.47-12.36l-.17-.08Z"/>
      </g>
      <g>
        <path class="cls-2" d="M273.51,143.19c-2.48,1.05-5.13,2.03-7.94,2.93-2.81.91-5.67,1.6-8.58,2.07-2.91.48-5.74.71-8.51.71-4.1,0-7.86-.68-11.3-2.03-3.43-1.35-6.17-3.6-8.22-6.72-2.05-3.13-3.07-7.35-3.07-12.68v-33.76h-9.29v-20.45h9.29v-23.59h27.17v23.59h14.73v20.45h-14.73v23.98c0,2.39.52,4.07,1.57,5.03,1.05.96,2.48,1.45,4.29,1.45,1.33,0,2.86-.24,4.58-.71,1.72-.48,3.43-1.05,5.15-1.72l4.86,21.45Z"/>
        <path class="cls-2" d="M281.23,65.97v-22.88h27.17v22.88h-27.17ZM281.23,147.48v-75.21h27.17v75.21h-27.17Z"/>
        <path class="cls-2" d="M318.12,110.37c0-7.31,1.41-13.85,4.22-19.62,2.81-5.76,6.7-10.31,11.65-13.64,4.96-3.33,10.63-4.99,17.02-4.99,4.86,0,9.34,1.12,13.44,3.36,4.1,2.24,7.2,5.32,9.29,9.22v-41.61h27.17v74.36c0,2.57.38,4.36,1.14,5.36.76,1,2.1,1.6,4,1.79v22.88c-4.67.95-8.49,1.43-11.44,1.43-4.58,0-8.2-.86-10.87-2.57-2.67-1.72-4.39-4.34-5.15-7.87l-.57-2.72c-2.57,4.58-6.05,7.91-10.44,10.01-4.39,2.1-9.06,3.15-14.01,3.15s-9.89-.94-14.23-2.81c-4.34-1.88-8.1-4.52-11.3-7.95-3.2-3.42-5.65-7.5-7.36-12.23s-2.57-9.92-2.57-15.54ZM373.89,118.61v-12.91c-.86-2.1-2.03-3.96-3.5-5.56-1.48-1.6-3.12-2.86-4.93-3.78-1.81-.92-3.67-1.37-5.58-1.37-2,0-3.84.41-5.5,1.24-1.67.82-3.12,1.97-4.36,3.43-1.24,1.47-2.19,3.16-2.86,5.08-.67,1.92-1,3.98-1,6.17s.36,4.35,1.07,6.18c.71,1.83,1.74,3.41,3.07,4.74,1.33,1.33,2.91,2.36,4.72,3.09,1.81.73,3.81,1.1,6.01,1.1,1.33,0,2.57-.16,3.72-.48,1.14-.32,2.24-.78,3.29-1.37,1.05-.59,2.07-1.37,3.07-2.33s1.93-2.04,2.79-3.23Z"/>
        <path class="cls-2" d="M454.25,148.91c-6.58,0-12.44-1.01-17.59-3.03-5.15-2.02-9.46-4.77-12.94-8.24-3.48-3.47-6.13-7.46-7.94-11.97-1.81-4.51-2.72-9.25-2.72-14.23,0-7.11,1.57-13.64,4.72-19.59s7.77-10.72,13.87-14.33c6.1-3.6,13.63-5.41,22.59-5.41s16.49,1.79,22.59,5.35c6.1,3.57,10.72,8.26,13.87,14.08,3.15,5.82,4.72,12.16,4.72,19.01,0,1.41-.07,2.84-.21,4.3-.14,1.46-.31,2.75-.5,3.87h-52.76c.19,2.53.93,4.59,2.22,6.18s2.91,2.74,4.86,3.46c1.95.72,3.98,1.09,6.08,1.09,2.95,0,5.74-.67,8.36-2,2.62-1.33,4.36-3.19,5.22-5.58l23.02,6.58c-2,4-4.79,7.53-8.37,10.58-3.57,3.05-7.79,5.46-12.65,7.22-4.86,1.76-10.34,2.65-16.44,2.65ZM441.38,102.43h24.88c-.29-2.33-.98-4.3-2.07-5.91-1.1-1.61-2.53-2.86-4.29-3.76-1.77-.89-3.79-1.34-6.08-1.34s-4.31.45-6.08,1.34c-1.77.9-3.2,2.15-4.29,3.76-1.1,1.61-1.79,3.58-2.07,5.91Z"/>
      </g>
    </g>
  </g>
</svg>