<?xml version="1.0" encoding="UTF-8"?>
<svg id="Layer_2" data-name="Layer 2" xmlns="http://www.w3.org/2000/svg" viewBox="0 0 490.5 192.03">
  <defs>
    <style>
      .cls-1 {
        fill: #000;
        stroke-width: 0px;
      }
    </style>
  </defs>
  <g id="Layer_1-2" data-name="Layer 1">
    <g>
      <g>
        <path class="cls-1" d="M1.13,137.12c27.53-11.09,66.03-4.05,97.35,11.26,4.83,2.23,9.21,4.44,13.61,6.78,24.59,14.36,55.98,21.76,73.03,18.2,7.29-1.07,4.67-9.53,5.17-15.82,0-2.68,0-5.61,0-8.23.06-4.75-.16-6.4-4.76-5.72-19.01,2.77-36.14-13.6-33.84-32.85,1.49-14.88,14.4-26.47,29.15-26.55,2.85-.27,6.13.94,8.67.24.57-.33.71-1.04.75-1.74.06-4.16,0-14.69.03-24.51-.12-7.24.28-14.99-.19-20.77-.31-.66-1.22-.47-1.92-.52-9.17-.07-53.03.14-62.15-.09-1.41,0-1.1-2.8-1.01-4.53.17-3.04-.01-6.22-.74-9.26-2.07-8.96-8.34-16.56-16.69-20.32-20.65-9.53-44.19,7.53-42.01,29.92.11,2.12.38,4.37-1.56,4.26-2.98.05-10.03,0-18.38.02-13.81-.02-30.83.01-43.04,0-1.63.09-2.18-.27-2.29.9-.03,7.25,0,86.39-.01,98.02-.02.63.01,1.4.78,1.31h.06Z"/>
        <path class="cls-1" d="M103.28,176.25c-12.45-6.62-23.31-11.63-36.23-15.75-34.54-10.79-54.05-5.19-65.46,1.92-1.9,1.84-1.72,5.42-1.36,8.01.67,4.97,2.8,9.6,6.06,13.19,3.96,4.86,11.86,8.06,17.74,8.32,11.45.19,58.07,0,91.23.06,12.36,0,21.89.01,24.65,0,.53-.02.48-.13-.3-.41-11.54-3.55-24.29-8.85-36.15-15.24l-.18-.09Z"/>
      </g>
      <g>
        <path class="cls-1" d="M268.58,143.2c-2.48,1.05-5.13,2.03-7.94,2.93-2.81.91-5.67,1.6-8.58,2.07-2.91.48-5.74.71-8.51.71-4.1,0-7.86-.68-11.3-2.03-3.43-1.35-6.17-3.6-8.22-6.72-2.05-3.13-3.07-7.35-3.07-12.68v-33.76h-9.29v-20.45h9.29v-23.59h27.17v23.59h14.73v20.45h-14.73v23.98c0,2.39.52,4.07,1.57,5.03,1.05.96,2.48,1.45,4.29,1.45,1.33,0,2.86-.24,4.58-.71,1.72-.48,3.43-1.05,5.15-1.72l4.86,21.45Z"/>
        <path class="cls-1" d="M276.3,65.99v-22.88h27.17v22.88h-27.17ZM276.3,147.49v-75.21h27.17v75.21h-27.17Z"/>
        <path class="cls-1" d="M313.19,110.39c0-7.31,1.41-13.85,4.22-19.62,2.81-5.76,6.7-10.31,11.65-13.64,4.96-3.33,10.63-4.99,17.02-4.99,4.86,0,9.34,1.12,13.44,3.36,4.1,2.24,7.2,5.32,9.29,9.22v-41.61h27.17v74.36c0,2.57.38,4.36,1.14,5.36.76,1,2.1,1.6,4,1.79v22.88c-4.67.95-8.49,1.43-11.44,1.43-4.58,0-8.2-.86-10.87-2.57-2.67-1.72-4.39-4.34-5.15-7.87l-.57-2.72c-2.57,4.58-6.05,7.91-10.44,10.01-4.39,2.1-9.06,3.15-14.01,3.15s-9.89-.94-14.23-2.81c-4.34-1.88-8.1-4.52-11.3-7.95-3.2-3.42-5.65-7.5-7.36-12.23s-2.57-9.92-2.57-15.54ZM368.96,118.63v-12.91c-.86-2.1-2.03-3.96-3.5-5.56-1.48-1.6-3.12-2.86-4.93-3.78-1.81-.92-3.67-1.37-5.58-1.37-2,0-3.84.41-5.5,1.24-1.67.82-3.12,1.97-4.36,3.43-1.24,1.47-2.19,3.16-2.86,5.08-.67,1.92-1,3.98-1,6.17s.36,4.35,1.07,6.18c.71,1.83,1.74,3.41,3.07,4.74,1.33,1.33,2.91,2.36,4.72,3.09,1.81.73,3.81,1.1,6.01,1.1,1.33,0,2.57-.16,3.72-.48,1.14-.32,2.24-.78,3.29-1.37,1.05-.59,2.07-1.37,3.07-2.33s1.93-2.04,2.79-3.23Z"/>
        <path class="cls-1" d="M449.32,148.92c-6.58,0-12.44-1.01-17.59-3.03-5.15-2.02-9.46-4.77-12.94-8.24-3.48-3.47-6.13-7.46-7.94-11.97-1.81-4.51-2.72-9.25-2.72-14.23,0-7.11,1.57-13.64,4.72-19.59s7.77-10.72,13.87-14.33c6.1-3.6,13.63-5.41,22.59-5.41s16.49,1.79,22.59,5.35c6.1,3.57,10.72,8.26,13.87,14.08,3.15,5.82,4.72,12.16,4.72,19.01,0,1.41-.07,2.84-.21,4.3-.14,1.46-.31,2.75-.5,3.87h-52.76c.19,2.53.93,4.59,2.22,6.18s2.91,2.74,4.86,3.46c1.95.72,3.98,1.09,6.08,1.09,2.95,0,5.74-.67,8.36-2,2.62-1.33,4.36-3.19,5.22-5.58l23.02,6.58c-2,4-4.79,7.53-8.37,10.58-3.57,3.05-7.79,5.46-12.65,7.22-4.86,1.76-10.34,2.65-16.44,2.65ZM436.45,102.45h24.88c-.29-2.33-.98-4.3-2.07-5.91-1.1-1.61-2.53-2.86-4.29-3.76-1.77-.89-3.79-1.34-6.08-1.34s-4.31.45-6.08,1.34c-1.77.9-3.2,2.15-4.29,3.76-1.1,1.61-1.79,3.58-2.07,5.91Z"/>
      </g>
    </g>
  </g>
</svg>